<svg width="523" height="502" viewBox="0 0 523 502" fill="none" xmlns="http://www.w3.org/2000/svg">
<g clip-path="url(#clip0_7_2)">
<path d="M336.581 127.691L298.436 189.009L398.845 192.311L499.251 195.615L451.909 107.005L404.565 18.398L366.142 80.165C306.375 46.227 237.082 36.134 169.751 51.82C98.778 68.357 38.492 111.542 0 173.42L47.488 202.961C108.681 104.597 236.341 72.214 336.581 127.691Z" fill="white"/>
<path d="M475.509 278.041C414.321 376.404 286.661 408.787 186.417 353.311L224.562 291.995L124.152 288.691L23.7461 285.387L71.0881 373.996L118.432 462.601L156.849 400.843C198.213 424.331 244.138 436.4 290.821 436.4C311.592 436.4 332.514 434.009 353.247 429.179C424.221 412.644 484.506 369.458 522.999 307.579L475.509 278.041Z" fill="white"/>
</g>
<defs>
<clipPath id="clip0_7_2">
<rect width="522.999" height="523" fill="white" transform="translate(0 -21)"/>
</clipPath>
</defs>
</svg>
